{
  "accessors": [
    {
      "bufferView": 2,
      "componentType": 5126,
      "count": 16616,
      "max": [
        2.8448004722595215,
        1.6179442405700684,
        0.15566731989383698
      ],
      "min": [
        -2.829453468322754,
        -1.6115546226501465,
        -1.8928765058517456
      ],
      "type": "VEC3"
    },
    {
      "bufferView": 2,
      "byteOffset": 199392,
      "componentType": 5126,
      "count": 16616,
      "max": [
        1.0,
        1.0,
        1.0
      ],
      "min": [
        -1.0,
        -1.0,
        -1.0
      ],
      "type": "VEC3"
    },
    {
      "bufferView": 1,
      "componentType": 5126,
      "count": 16616,
      "max": [
        1.0,
        1.0
      ],
      "min": [
        0.010937482118606567,
        0.024128377437591553
      ],
      "type": "VEC2"
    },
    {
      "bufferView": 1,
      "byteOffset": 132928,
      "componentType": 5126,
      "count": 16616,
      "max": [
        1.0,
        1.0
      ],
      "min": [
        0.010937482118606567,
        0.024128377437591553
      ],
      "type": "VEC2"
    },
    {
      "bufferView": 1,
      "byteOffset": 265856,
      "componentType": 5126,
      "count": 16616,
      "max": [
        1.0,
        1.0
      ],
      "min": [
        0.010937482118606567,
        0.024128377437591553
      ],
      "type": "VEC2"
    },
    {
      "bufferView": 0,
      "componentType": 5125,
      "count": 33828,
      "type": "SCALAR"
    },
    {
      "bufferView": 2,
      "byteOffset": 398784,
      "componentType": 5126,
      "count": 104,
      "max": [
        2.824991464614868,
        1.591980218887329,
        0.15566731989383698
      ],
      "min": [
        -2.803255081176758,
        -1.600937843322754,
        -1.8904178142547607
      ],
      "type": "VEC3"
    },
    {
      "bufferView": 2,
      "byteOffset": 400032,
      "componentType": 5126,
      "count": 104,
      "max": [
        1.0,
        1.0,
        1.0
      ],
      "min": [
        -1.0,
        -1.0,
        -1.0
      ],
      "type": "VEC3"
    },
    {
      "bufferView": 1,
      "byteOffset": 398784,
      "componentType": 5126,
      "count": 104,
      "max": [
        0.7995070219039917,
        0.9982722997665405
      ],
      "min": [
        0.0,
        0.11255335807800293
      ],
      "type": "VEC2"
    },
    {
      "bufferView": 1,
      "byteOffset": 399616,
      "componentType": 5126,
      "count": 104,
      "max": [
        0.7995070219039917,
        0.9982722997665405
      ],
      "min": [
        0.0,
        0.11255335807800293
      ],
      "type": "VEC2"
    },
    {
      "bufferView": 1,
      "byteOffset": 400448,
      "componentType": 5126,
      "count": 104,
      "max": [
        0.7995070219039917,
        0.9982722997665405
      ],
      "min": [
        0.0,
        0.11255335807800293
      ],
      "type": "VEC2"
    },
    {
      "bufferView": 0,
      "byteOffset": 135312,
      "componentType": 5125,
      "count": 180,
      "type": "SCALAR"
    },
    {
      "bufferView": 2,
      "byteOffset": 401280,
      "componentType": 5126,
      "count": 16575,
      "max": [
        2.6005191802978516,
        1.5421507358551025,
        -1.9120053052902222
      ],
      "min": [
        -2.599320411682129,
        -1.5421507358551025,
        -3.4414658546447754
      ],
      "type": "VEC3"
    },
    {
      "bufferView": 2,
      "byteOffset": 600180,
      "componentType": 5126,
      "count": 16575,
      "max": [
        1.0,
        1.0,
        1.0
      ],
      "min": [
        -1.0,
        -1.0,
        -1.0
      ],
      "type": "VEC3"
    },
    {
      "bufferView": 1,
      "byteOffset": 401280,
      "componentType": 5126,
      "count": 16575,
      "max": [
        0.9948685765266418,
        0.9982996582984924
      ],
      "min": [
        0.010937482118606567,
        0.07436901330947876
      ],
      "type": "VEC2"
    },
    {
      "bufferView": 1,
      "byteOffset": 533880,
      "componentType": 5126,
      "count": 16575,
      "max": [
        0.9948685765266418,
        0.9982996582984924
      ],
      "min": [
        0.010937482118606567,
        0.07436901330947876
      ],
      "type": "VEC2"
    },
    {
      "bufferView": 1,
      "byteOffset": 666480,
      "componentType": 5126,
      "count": 16575,
      "max": [
        0.9948685765266418,
        0.9982996582984924
      ],
      "min": [
        0.010937482118606567,
        0.07436901330947876
      ],
      "type": "VEC2"
    },
    {
      "bufferView": 0,
      "byteOffset": 136032,
      "componentType": 5125,
      "count": 30384,
      "type": "SCALAR"
    },
    {
      "bufferView": 2,
      "byteOffset": 799080,
      "componentType": 5126,
      "count": 89,
      "max": [
        2.406541347503662,
        1.482515573501587,
        -1.8963619470596313
      ],
      "min": [
        -2.4053425788879395,
        -1.4837145805358887,
        -3.3951210975646973
      ],
      "type": "VEC3"
    },
    {
      "bufferView": 2,
      "byteOffset": 800148,
      "componentType": 5126,
      "count": 89,
      "max": [
        1.0,
        0.9876939654350281,
        0.3089888393878937
      ],
      "min": [
        -1.0,
        -0.9876939654350281,
        -1.0
      ],
      "type": "VEC3"
    },
    {
      "bufferView": 1,
      "byteOffset": 799080,
      "componentType": 5126,
      "count": 89,
      "max": [
        0.9511462450027466,
        0.9982790946960449
      ],
      "min": [
        0.0,
        0.06467932462692261
      ],
      "type": "VEC2"
    },
    {
      "bufferView": 1,
      "byteOffset": 799792,
      "componentType": 5126,
      "count": 89,
      "max": [
        0.9511462450027466,
        0.9982790946960449
      ],
      "min": [
        0.0,
        0.06467932462692261
      ],
      "type": "VEC2"
    },
    {
      "bufferView": 1,
      "byteOffset": 800504,
      "componentType": 5126,
      "count": 89,
      "max": [
        0.9511462450027466,
        0.9982790946960449
      ],
      "min": [
        0.0,
        0.06467932462692261
      ],
      "type": "VEC2"
    },
    {
      "bufferView": 0,
      "byteOffset": 257568,
      "componentType": 5125,
      "count": 219,
      "type": "SCALAR"
    }
  ],
  "asset": {
    "extras": {
      "author": "BUCKY (https://sketchfab.com/ananthakrishnannandhu2003)",
      "license": "SKETCHFAB Standard (https://sketchfab.com/licenses)",
      "source": "https://sketchfab.com/3d-models/pirate-chest-61dc12f30dc0466e8aa14f06c6617964",
      "title": "pirate_chest"
    },
    "generator": "Sketchfab-16.12.0",
    "version": "2.0"
  },
  "bufferViews": [
    {
      "buffer": 0,
      "byteLength": 258444,
      "name": "floatBufferViews",
      "target": 34963
    },
    {
      "buffer": 0,
      "byteLength": 801216,
      "byteOffset": 258444,
      "byteStride": 8,
      "name": "floatBufferViews",
      "target": 34962
    },
    {
      "buffer": 0,
      "byteLength": 801216,
      "byteOffset": 1059660,
      "byteStride": 12,
      "name": "floatBufferViews",
      "target": 34962
    }
  ],
  "buffers": [
    {
      "byteLength": 1860876,
      "uri": "scene.bin"
    }
  ],
  "extensionsUsed": [
    "KHR_materials_specular"
  ],
  "images": [
    {
      "uri": "textures/gold_baseColor.jpeg"
    },
    {
      "uri": "textures/gold_metallicRoughness.png"
    },
    {
      "uri": "textures/gold_specularf0.png"
    },
    {
      "uri": "textures/wood_baseColor.jpeg"
    },
    {
      "uri": "textures/wood_metallicRoughness.png"
    }
  ],
  "materials": [
    {
      "doubleSided": true,
      "extensions": {
        "KHR_materials_specular": {
          "specularColorFactor": [
            1.0,
            1.0,
            1.0
          ],
          "specularFactor": 1.0,
          "specularTexture": {
            "index": 2
          }
        }
      },
      "name": "gold",
      "pbrMetallicRoughness": {
        "baseColorTexture": {
          "index": 0
        },
        "metallicRoughnessTexture": {
          "index": 1
        }
      }
    },
    {
      "doubleSided": true,
      "name": "wood",
      "pbrMetallicRoughness": {
        "baseColorTexture": {
          "index": 3
        },
        "metallicRoughnessTexture": {
          "index": 4
        }
      }
    }
  ],
  "meshes": [
    {
      "name": "Object_0",
      "primitives": [
        {
          "attributes": {
            "NORMAL": 1,
            "POSITION": 0,
            "TEXCOORD_0": 2,
            "TEXCOORD_1": 3,
            "TEXCOORD_2": 4
          },
          "indices": 5,
          "material": 0,
          "mode": 4
        }
      ]
    },
    {
      "name": "Object_1",
      "primitives": [
        {
          "attributes": {
            "NORMAL": 7,
            "POSITION": 6,
            "TEXCOORD_0": 8,
            "TEXCOORD_1": 9,
            "TEXCOORD_2": 10
          },
          "indices": 11,
          "material": 1,
          "mode": 4
        }
      ]
    },
    {
      "name": "Object_2",
      "primitives": [
        {
          "attributes": {
            "NORMAL": 13,
            "POSITION": 12,
            "TEXCOORD_0": 14,
            "TEXCOORD_1": 15,
            "TEXCOORD_2": 16
          },
          "indices": 17,
          "material": 0,
          "mode": 4
        }
      ]
    },
    {
      "name": "Object_3",
      "primitives": [
        {
          "attributes": {
            "NORMAL": 19,
            "POSITION": 18,
            "TEXCOORD_0": 20,
            "TEXCOORD_1": 21,
            "TEXCOORD_2": 22
          },
          "indices": 23,
          "material": 1,
          "mode": 4
        }
      ]
    }
  ],
  "nodes": [
    {
      "children": [
        1
      ],
      "matrix": [
        1.0,
        0.0,
        0.0,
        0.0,
        0.0,
        2.220446049250313e-16,
        -1.0,
        0.0,
        0.0,
        1.0,
        2.220446049250313e-16,
        0.0,
        0.0,
        0.0,
        0.0,
        1.0
      ],
      "name": "Sketchfab_model"
    },
    {
      "children": [
        2
      ],
      "name": "root"
    },
    {
      "children": [
        3,
        6
      ],
      "matrix": [
        1.0,
        0.0,
        0.0,
        0.0,
        0.0,
        2.220446049250313e-16,
        1.0,
        0.0,
        0.0,
        -1.0,
        2.220446049250313e-16,
        0.0,
        0.0,
        0.0,
        0.0,
        1.0
      ],
      "name": "GLTF_SceneRootNode"
    },
    {
      "children": [
        4,
        5
      ],
      "matrix": [
        0.8260120749473572,
        0.0,
        0.0,
        0.0,
        0.0,
        0.0,
        0.8260120749473572,
        0.0,
        0.0,
        -0.8260120749473572,
        0.0,
        0.0,
        0.0,
        -0.25851762294769287,
        -0.23455505073070526,
        1.0
      ],
      "name": "polySurface34_0"
    },
    {
      "mesh": 0,
      "name": "Object_4"
    },
    {
      "mesh": 1,
      "name": "Object_5"
    },
    {
      "children": [
        7,
        8
      ],
      "matrix": [
        0.8260120749473572,
        0.0,
        0.0,
        0.0,
        0.0,
        0.29159417154780065,
        0.7728316680093993,
        0.0,
        0.0,
        -0.7728316680093993,
        0.29159417154780065,
        0.0,
        0.0,
        0.26485371589660645,
        0.2403038591146469,
        1.0
      ],
      "name": "polySurface35_1"
    },
    {
      "mesh": 2,
      "name": "Object_7"
    },
    {
      "mesh": 3,
      "name": "Object_8"
    }
  ],
  "samplers": [
    {
      "magFilter": 9729,
      "minFilter": 9987,
      "wrapS": 10497,
      "wrapT": 10497
    }
  ],
  "scene": 0,
  "scenes": [
    {
      "name": "Sketchfab_Scene",
      "nodes": [
        0
      ]
    }
  ],
  "textures": [
    {
      "sampler": 0,
      "source": 0
    },
    {
      "sampler": 0,
      "source": 1
    },
    {
      "sampler": 0,
      "source": 2
    },
    {
      "sampler": 0,
      "source": 3
    },
    {
      "sampler": 0,
      "source": 4
    }
  ]
}
